<svg id="Layer_1" enable-background="new 0 0 511.998 511.998" height="512" viewBox="0 0 511.998 511.998" width="512" xmlns="http://www.w3.org/2000/svg"><path d="m511.998 137.838h-149.559c23.525-25.349 22.974-65.102-1.682-89.758-12.224-12.225-28.477-18.956-45.764-18.956s-33.54 6.731-45.764 18.955c-5.256 5.256-9.613 13.455-13.231 23.371-3.618-9.916-7.975-18.115-13.23-23.37-12.224-12.224-28.476-18.956-45.764-18.956-17.287 0-33.54 6.731-45.764 18.956-24.656 24.656-25.207 64.409-1.682 89.758h-149.558v118.192h30.001v226.844h451.995v-226.844h30.002zm-220.996 30v58.191h-70.007v-58.191zm0 88.192v196.844h-70.007v-196.844zm-.56-186.737c6.558-6.558 15.277-10.169 24.551-10.169s17.993 3.611 24.551 10.169 10.169 15.276 10.169 24.551c0 9.273-3.611 17.993-10.169 24.551-7.848 7.847-37.785 14.685-66.71 17.932 4.6-37.116 11.964-61.389 17.608-67.034zm-117.989 0c6.558-6.558 15.277-10.169 24.551-10.169s17.993 3.611 24.551 10.17c5.644 5.643 13.007 29.915 17.608 67.032-28.925-3.247-58.862-10.085-66.71-17.932-13.537-13.536-13.537-35.563 0-49.101zm-142.453 98.545h160.995v58.191h-160.995zm30.001 88.192h130.994v196.844h-130.994zm391.995 196.844h-130.994v-196.844h130.994zm30.002-226.844h-160.996v-58.191h160.996z"/></svg>